<svg xmlns="http://www.w3.org/2000/svg" viewBox="0 0 900 1050" role="img" aria-label="Mockup suspenso Cristian Pelo Autismo"><defs><linearGradient id="bg" x1="0" y1="0" x2="1" y2="1"><stop stop-color="#e8fbff"/><stop offset="1" stop-color="#ffffff"/></linearGradient><linearGradient id="teal" x1="0" y1="0" x2="1" y2="1"><stop stop-color="#13bfd0"/><stop offset="1" stop-color="#1769e0"/></linearGradient><filter id="shadow" x="-30%" y="-30%" width="160%" height="160%"><feDropShadow dx="0" dy="25" stdDeviation="25" flood-color="#074f6b" flood-opacity=".18"/></filter></defs><rect width="900" height="1050" rx="70" fill="url(#bg)"/><circle cx="760" cy="170" r="150" fill="#d6f7ff"/><circle cx="110" cy="860" r="190" fill="#eef7ff"/><g filter="url(#shadow)"><rect x="275" y="95" width="360" height="760" rx="58" fill="#111827"/><rect x="291" y="116" width="328" height="718" rx="44" fill="#fff"/><rect x="400" y="132" width="110" height="18" rx="9" fill="#111827"/><text x="322" y="185" font-family="Arial" font-size="20" font-weight="700" fill="#0f365a">cristianautismo.com.br</text><rect x="322" y="218" width="82" height="30" rx="15" fill="#dff8fb"/><text x="342" y="240" font-family="Arial" font-size="14" font-weight="700" fill="#07879a">PROJETO</text><text x="322" y="305" font-family="Arial" font-size="48" font-weight="800" fill="#0d3154">Cristian</text><text x="322" y="360" font-family="Arial" font-size="48" font-weight="800" fill="#0d3154">Pelo Autismo</text><text x="322" y="405" font-family="Arial" font-size="24" font-weight="700" fill="#10a6b8">Informação, acolhimento</text><text x="322" y="435" font-family="Arial" font-size="24" font-weight="700" fill="#10a6b8">e defesa de direitos</text><rect x="318" y="478" width="280" height="230" rx="34" fill="#eaf8fb"/><circle cx="420" cy="575" r="74" fill="#f3d7c4"/><path d="M350 700c12-72 132-72 146 0" fill="#f4f7fb"/><path d="M372 528c18-56 90-56 111 1" fill="#2c2c2c"/><rect x="375" y="572" width="86" height="24" rx="12" fill="none" stroke="#171717" stroke-width="6"/><circle cx="403" cy="584" r="5" fill="#1a1a1a"/><circle cx="438" cy="584" r="5" fill="#1a1a1a"/><path d="M392 625q29 22 60 0" fill="none" stroke="#8e4a3e" stroke-width="5" stroke-linecap="round"/><circle cx="532" cy="598" r="54" fill="#f7d6c7"/><path d="M485 558c24-42 85-42 102 5-28-9-62-5-95 6z" fill="#8a5a32"/><circle cx="514" cy="600" r="5" fill="#1a1a1a"/><circle cx="548" cy="600" r="5" fill="#1a1a1a"/><path d="M512 635q26 15 53 0" fill="none" stroke="#8e4a3e" stroke-width="4" stroke-linecap="round"/><path d="M291 760c85-70 245-75 328 0v74H291z" fill="url(#teal)"/><text x="347" y="800" font-family="Arial" font-size="21" font-weight="700" fill="#fff">Mais inclusão, mais respeito</text></g><g filter="url(#shadow)"><rect x="65" y="260" width="210" height="130" rx="28" fill="#ffffff" opacity=".95"/><circle cx="110" cy="306" r="24" fill="#e5fbff"/><text x="146" y="307" font-family="Arial" font-size="19" font-weight="800" fill="#0d3154">Sobre</text><text x="146" y="333" font-family="Arial" font-size="19" font-weight="800" fill="#0d3154">Cristian</text><path d="M88 306c10-21 32-21 45 0M88 302c10 21 32 21 45 0" stroke="#16b7c8" stroke-width="4" fill="none" stroke-linecap="round"/></g><g filter="url(#shadow)"><rect x="632" y="400" width="220" height="140" rx="28" fill="#ffffff" opacity=".95"/><text x="668" y="448" font-family="Arial" font-size="20" font-weight="800" fill="#0d3154">Direitos e</text><text x="668" y="476" font-family="Arial" font-size="20" font-weight="800" fill="#0d3154">Benefícios</text><rect x="668" y="502" width="86" height="8" rx="4" fill="#17b7c9"/></g><g filter="url(#shadow)"><rect x="85" y="635" width="235" height="150" rx="28" fill="#ffffff" opacity=".95"/><text x="125" y="690" font-family="Arial" font-size="20" font-weight="800" fill="#0d3154">Palestras</text><text x="125" y="718" font-family="Arial" font-size="20" font-weight="800" fill="#0d3154">e Ações</text><rect x="125" y="742" width="95" height="8" rx="4" fill="#ffb703"/></g></svg>
