<svg xmlns="http://www.w3.org/2000/svg" viewBox="0 0 420 120" role="img" aria-labelledby="title desc">
  <title id="title">Vitrine IA Pro</title>
  <desc id="desc">Logo Vitrine IA Pro</desc>
  <defs>
    <linearGradient id="g" x1="0" y1="0" x2="1" y2="1">
      <stop offset="0" stop-color="#00c2ff"/>
      <stop offset="0.55" stop-color="#2563eb"/>
      <stop offset="1" stop-color="#7c3aed"/>
    </linearGradient>
    <linearGradient id="g2" x1="0" y1="0" x2="1" y2="0">
      <stop offset="0" stop-color="#0f766e"/>
      <stop offset="1" stop-color="#2563eb"/>
    </linearGradient>
  </defs>
  <rect x="4" y="4" width="112" height="112" rx="28" fill="#ffffff" opacity=".98"/>
  <path d="M33 29h55c8 0 14 6 14 14v32c0 8-6 14-14 14H33c-8 0-14-6-14-14V43c0-8 6-14 14-14Z" fill="url(#g)"/>
  <path d="M37 43h47v8H37zm0 17h34v8H37z" fill="#fff" opacity=".95"/>
  <circle cx="90" cy="75" r="9" fill="#fff" opacity=".95"/>
  <path d="M32 92l56-63" fill="none" stroke="#0f172a" stroke-opacity=".18" stroke-width="8" stroke-linecap="round"/>
  <text x="135" y="48" font-family="Inter, Arial, sans-serif" font-size="33" font-weight="900" fill="#0f172a" letter-spacing="1.5">VITRINE</text>
  <text x="136" y="80" font-family="Inter, Arial, sans-serif" font-size="26" font-weight="800" fill="url(#g2)" letter-spacing="2.5">IA PRO</text>
  <text x="137" y="102" font-family="Inter, Arial, sans-serif" font-size="13" font-weight="700" fill="#64748b" letter-spacing="1.1">TECNOLOGIA • AUTOMAÇÃO • PRESENÇA DIGITAL</text>
</svg>
