<svg xmlns="http://www.w3.org/2000/svg" viewBox="0 0 64 64"><defs><linearGradient id="g" x1="0" x2="1"><stop stop-color="#06b6d4"/><stop offset="1" stop-color="#2563eb"/></linearGradient></defs><path fill="url(#g)" d="M48 18c-6 0-10 6-16 14-6-8-10-14-16-14C8 18 3 24 3 32s5 14 13 14c6 0 10-6 16-14 6 8 10 14 16 14 8 0 13-6 13-14s-5-14-13-14Zm-32 20c-3.4 0-5.5-2.5-5.5-6s2.1-6 5.5-6c2.9 0 5.9 3.8 10.7 10.2C22.1 37.8 19.1 38 16 38Zm32 0c-3.1 0-6.1-.2-10.7-1.8C42.1 29.8 45.1 26 48 26c3.4 0 5.5 2.5 5.5 6S51.4 38 48 38Z"/></svg>
